<svg width="34" height="32" viewBox="0 0 34 32" fill="none" xmlns="http://www.w3.org/2000/svg">
<path fill-rule="evenodd" clip-rule="evenodd" d="M12.0066 1.33808C11.5731 1.82034 11.7569 2.33872 12.6879 3.25843L13.477 4.03808L7.23849 10.328C1.85404 15.7567 1 16.6883 1 17.1329C1 17.5784 1.89822 18.5525 7.62879 24.3221C13.3592 30.0919 14.3267 30.9962 14.7691 30.9962C15.2107 30.9962 16.1363 30.1365 21.5226 24.7243L27.7646 18.4524L28.6613 19.3173C29.1543 19.793 29.6806 20.1823 29.8306 20.1823C30.1946 20.1823 30.7962 19.5599 30.7962 19.1834C30.7962 18.7295 13.1312 0.996216 12.6791 0.996216C12.4783 0.996216 12.1757 1.15005 12.0066 1.33808ZM20.2289 10.8509L25.6837 16.3451H14.7721H3.86043L9.31522 10.8509C12.3153 7.82906 14.7721 5.35668 14.7721 5.35668C14.7721 5.35668 17.2289 7.82906 20.2289 10.8509ZM30.6223 22.4509C30.2166 23.2144 29.0639 26.7012 29.0639 27.1653C29.0639 28.3341 29.8419 29.0776 31.0647 29.0776C31.8955 29.0776 32.875 28.1513 32.875 27.3657C32.875 26.6432 31.3396 22.3219 31.0422 22.2069C30.9098 22.1556 30.7208 22.2655 30.6223 22.4509Z" fill="#F31CED" stroke="#F31CED" stroke-width="0.5"/>
</svg>
