<svg width="50" height="78" viewBox="0 0 50 78" fill="none" xmlns="http://www.w3.org/2000/svg">
<path opacity="0.25" d="M42.6463 75.1111H41.1757H39.7052H38.2346H36.764H35.2934H33.8228H32.3522H30.8817H29.4111H27.9405H26.4699H24.9993H23.5287H22.0582H20.5876H19.117H17.6464H16.1758H14.7052H13.2347H11.7641H10.2935H8.82291H7.35233H5.88174L5.88174 76.5556H7.35233L7.35233 78H8.82291H10.2935H11.7641H13.2347H14.7052H16.1758H17.6464H19.117H20.5876H22.0582H23.5287H24.9993H26.4699H27.9405H29.4111H30.8817H32.3522H33.8228H35.2934H36.764H38.2346H39.7052H41.1757H42.6463V76.5556H44.1169V75.1111H42.6463Z" fill="black"/>
<path d="M8.82343 8.66661H10.294H11.7646L11.7646 7.22216V5.77772H10.294H8.82343H7.35285H5.88226L5.88226 7.22216L5.88226 8.66661H7.35285H8.82343Z" fill="#64438E"/>
<path d="M5.88294 11.5557L5.88294 10.1113L5.88294 8.66683H4.41236H2.94177L2.94177 10.1113L2.94177 11.5557H4.41236H5.88294Z" fill="#64438E"/>
<path d="M14.7063 5.77725H16.1769H17.6475L17.6475 4.33281V2.88836H16.1769H14.7063H13.2357H11.7652L11.7652 4.33281V5.77725H13.2357H14.7063Z" fill="#64438E"/>
<path d="M20.5882 2.88889H22.0588H23.5294H24.9999H26.4705H27.9411H29.4117H30.8823H32.3529V1.44445V0H30.8823H29.4117H27.9411H26.4705H24.9999H23.5294H22.0588H20.5882H19.1176H17.647V1.44445L17.647 2.88889H19.1176H20.5882Z" fill="#64438E"/>
<path d="M44.1177 11.5557H45.5883H47.0589V10.1113V8.66683H45.5883H44.1177V10.1113V11.5557Z" fill="#64438E"/>
<path d="M48.5295 11.5554H47.0589V12.9999V14.4443L47.0589 15.8888V17.3332V18.7777V20.2221V21.6666V23.111L47.0589 24.5555V25.9999V27.4444V28.8888V30.3332V31.7777L47.0589 33.2221V34.6666V36.111V37.5555V38.9999L47.0589 40.4444V41.8888V43.3333V44.7777V46.2222V47.6666L47.0589 49.1111V50.5555V51.9999V53.4444V54.8888L47.0589 56.3333V57.7777V59.2222V60.6666V62.1111V63.5555L47.0589 65V66.4444V67.8889H45.5883H44.1177V69.3333V70.7778H45.5883H47.0589H48.5295H50.0001V69.3333V67.8889V66.4444V65L50.0001 63.5555V62.1111V60.6666V59.2222V57.7777V56.3333L50.0001 54.8888V53.4444V51.9999V50.5555V49.1111L50.0001 47.6666V46.2222V44.7777V43.3333V41.8888V40.4444L50.0001 38.9999V37.5555V36.111V34.6666V33.2221L50.0001 31.7777V30.3332V28.8888V27.4444V25.9999V24.5555V23.111L50.0001 21.6666V20.2221V18.7777V17.3332L50.0001 15.8888V14.4443V12.9999V11.5554H48.5295Z" fill="#64438E"/>
<path d="M32.3532 5.77725H33.8238H35.2944H36.765H38.2355V4.33281V2.88836H36.765H35.2944H33.8238H32.3532V4.33281V5.77725Z" fill="#64438E"/>
<path d="M38.2355 8.66661H39.7061H41.1766H42.6472H44.1178V7.22216V5.77772H42.6472H41.1766H39.7061H38.2355V7.22216V8.66661Z" fill="#64438E"/>
<path d="M2.94117 67.8889L2.94117 66.4444L2.94117 65L2.94117 63.5555L2.94117 62.1111L2.94117 60.6666L2.94117 59.2222L2.94117 57.7777L2.94117 56.3333L2.94117 54.8888L2.94117 53.4444L2.94117 51.9999L2.94117 50.5555L2.94117 49.1111L2.94117 47.6666L2.94117 46.2222L2.94117 44.7777L2.94117 43.3333L2.94117 41.8888L2.94117 40.4444L2.94117 38.9999L2.94117 37.5555L2.94117 36.111L2.94117 34.6666L2.94117 33.2221L2.94117 31.7777L2.94117 30.3332L2.94117 28.8888L2.94117 27.4444L2.94117 25.9999L2.94117 24.5555L2.94117 23.111L2.94117 21.6666L2.94117 20.2221L2.94117 18.7777L2.94117 17.3332L2.94117 15.8888L2.94117 14.4443L2.94117 12.9999L2.94117 11.5554H1.47058H0L0 12.9999L0 14.4443L0 15.8888L0 17.3332L0 18.7777L0 20.2221L0 21.6666L0 23.111L0 24.5555L0 25.9999L0 27.4444L0 28.8888L0 30.3332L0 31.7777L0 33.2221L0 34.6666L0 36.111L0 37.5555L0 38.9999L0 40.4444L0 41.8888L0 43.3333L0 44.7777L0 46.2222L0 47.6666L0 49.1111L0 50.5555L0 51.9999L0 53.4444L0 54.8888L0 56.3333L0 57.7777L0 59.2222L0 60.6666L0 62.1111L0 63.5555L0 65L0 66.4444L0 67.8889L0 69.3333L0 70.7778H1.47058H2.94117H4.41175H5.88233L5.88233 69.3333L5.88233 67.8889H4.41175H2.94117Z" fill="#64438E"/>
<path d="M13.2352 65H11.7646H10.294H8.82343H7.35285H5.88226L5.88226 66.4444L5.88226 67.8889H7.35285H8.82343H10.294H11.7646H13.2352L13.2352 66.4444V65Z" fill="#64438E"/>
<path d="M17.6472 67.8888H16.1766H14.7061H13.2355L13.2355 69.3333V70.7777H14.7061H16.1766H17.6472H19.1178H20.5884L20.5884 69.3333V67.8888H19.1178H17.6472Z" fill="#64438E"/>
<path d="M44.1174 65H42.6469H41.1763H39.7057H38.2351H36.7645V66.4444V67.8889H38.2351H39.7057H41.1763H42.6469H44.1174V66.4444V65Z" fill="#64438E"/>
<path d="M29.4119 65H27.9414H26.4708H25.0002H23.5296H22.059H20.5884V66.4444L20.5884 67.8889H22.059H23.5296H25.0002H26.4708H27.9414H29.4119V66.4444V65Z" fill="#64438E"/>
<path d="M33.8236 67.8888H32.353H30.8824H29.4118V69.3333L29.4118 70.7777H30.8824H32.353H33.8236H35.2942H36.7648V69.3333V67.8888H35.2942H33.8236Z" fill="#64438E"/>
<path d="M4.41168 53.4443L4.41168 54.8887L4.41168 56.3332L4.41168 57.7776L4.41168 59.222L4.41168 60.6665L4.41168 62.1109H5.88227H7.35285L7.35285 60.6665H8.82343H10.294L10.294 62.1109H11.7646H13.2352L13.2352 63.5554L13.2352 64.9998H11.7646H10.294H8.82343H7.35285H5.88227L5.88227 66.4443L5.88227 67.8887H4.41168H2.9411L2.9411 66.4443L2.9411 64.9998L2.9411 63.5554L2.9411 62.1109L2.9411 60.6665L2.9411 59.222L2.9411 57.7776L2.9411 56.3332L2.9411 54.8887L2.9411 53.4443L2.9411 51.9998L2.9411 50.5554L2.9411 49.1109L2.9411 47.6665L2.9411 46.222L2.9411 44.7776L2.9411 43.3331L2.9411 41.8887L2.9411 40.4442L2.9411 38.9998L2.9411 37.5553L2.9411 36.1109L2.9411 34.6665L2.9411 33.222L2.9411 31.7776L2.9411 30.3331L2.9411 28.8887L2.9411 27.4442L2.9411 25.9998L2.9411 24.5553L2.9411 23.1109L2.9411 21.6664L2.9411 20.222L2.9411 18.7775L2.9411 17.3331L2.9411 15.8886L2.9411 14.4442L2.9411 12.9998L2.9411 11.5553H4.41168H5.88227L5.88227 12.9998H4.41168L4.41168 14.4442L4.41168 15.8886L4.41168 17.3331L4.41168 18.7775L4.41168 20.222L4.41168 21.6664L4.41168 23.1109L4.41168 24.5553L4.41168 25.9998L4.41168 27.4442L4.41168 28.8887L4.41168 30.3331L4.41168 31.7776L4.41168 33.222L4.41168 34.6665L4.41168 36.1109L4.41168 37.5553L4.41168 38.9998L4.41168 40.4442L4.41168 41.8887L4.41168 43.3331L4.41168 44.7776L4.41168 46.222L4.41168 47.6665L4.41168 49.1109L4.41168 50.5554L4.41168 53.4443Z" fill="#EDD3FD"/>
<path d="M17.6466 64.9996H16.176H14.7054H13.2348L13.2348 66.444V67.8885H14.7054H16.176H17.6466H19.1171H20.5877L20.5877 66.444V64.9996H19.1171H17.6466Z" fill="#EDD3FD"/>
<path d="M33.8236 64.9996H32.353H30.8824H29.4118V66.444L29.4118 67.8885H30.8824H32.353H33.8236H35.2941H36.7647V66.444V64.9996H35.2941H33.8236Z" fill="#EDD3FD"/>
<path d="M29.4114 62.1109H27.9408H26.4702V60.6664H24.9996H23.5291V62.1109H22.0585H20.5879L20.5879 63.5553V64.9998H22.0585H23.5291H24.9996H26.4702H27.9408H29.4114L29.4114 63.5553V62.1109Z" fill="#EDD3FD"/>
<path d="M14.7057 7.22228H16.1762H17.6468V5.77783H16.1762H14.7057H13.2351H11.7645L11.7645 7.22228H13.2351H14.7057Z" fill="#EDD3FD"/>
<path d="M8.82392 10.1106H10.2945H11.7651V8.66619H10.2945H8.82392H7.35333H5.88275L5.88275 10.1106H7.35333H8.82392Z" fill="#EDD3FD"/>
<path d="M44.1173 54.8887L44.1173 56.3332V57.7776V59.222V60.6665V62.1109H42.6467V60.6665H41.1761H39.7055V62.1109H38.235H36.7644L36.7644 63.5554V64.9998H38.235H39.7055H41.1761H42.6467H44.1173V66.4443V67.8887H45.5879H47.0585V66.4443V64.9998L47.0585 63.5554V62.1109V60.6665V59.222V57.7776V56.3332V54.8887L47.0585 53.4443V51.9998V50.5554V49.1109L47.0585 47.6665V46.222V44.7776V43.3331V41.8887V40.4442V38.9998L47.0585 37.5553V36.1109V34.6665V33.222L47.0585 31.7776V30.3331V28.8887V27.4442V25.9998V24.5553V23.1109L47.0585 21.6664V20.222V18.7775V17.3331L47.0585 15.8886V14.4442V12.9998V11.5553H45.5879H44.1173V12.9998V14.4442V15.8886L44.1173 17.3331V18.7775V20.222V21.6664L44.1173 23.1109V24.5553V25.9998V27.4442V28.8887V30.3331V31.7776L44.1173 33.222V34.6665V36.1109V37.5553V38.9998L44.1173 40.4442V41.8887V43.3331V44.7776V46.222V47.6665L44.1173 49.1109V50.5554V51.9998V53.4443V54.8887Z" fill="#EDD3FD"/>
<path d="M32.3528 2.88847H30.8822H29.4117H27.9411H26.4705H24.9999H23.5293H22.0588H20.5882H19.1176H17.647V4.33292H19.1176H20.5882H22.0588H23.5293H24.9999L24.9999 5.77737H26.4705H27.9411H29.4117H30.8822H32.3528V4.33292V2.88847Z" fill="#EDD3FD"/>
<path d="M44.1173 8.66619H42.6467H41.1761H39.7055H38.2349V10.1106V11.5551H39.7055H41.1761H42.6467H44.1173V10.1106V8.66619Z" fill="#EDD3FD"/>
<path d="M38.235 5.77783H36.7644H35.2938H33.8232H32.3527V7.22228V8.66673H33.8232H35.2938H36.7644H38.235V7.22228V5.77783Z" fill="#EDD3FD"/>
<path d="M42.6467 11.5554H41.1761H39.7055H38.235V10.111V8.66651H36.7644H35.2938H33.8232H32.3526V7.22206V5.77762H30.8821H29.4115H27.9409H26.4703H24.9997V4.33317H23.5291H22.0586H20.588H19.1174H17.6468V5.77762V7.22206H16.1762H14.7056H13.2351H11.7645V8.66651L11.7645 10.111H10.2939H8.82331H7.35273H5.88214L5.88214 11.5554L5.88214 12.9999H4.41156L4.41156 14.4443L4.41156 15.8887L4.41156 17.3332L4.41156 18.7776L4.41156 20.2221L4.41156 21.6665L4.41156 23.111L4.41156 24.5554L4.41156 25.9999L4.41156 27.4443L4.41156 28.8888L4.41156 30.3332L4.41156 31.7777L4.41156 33.2221L4.41156 34.6666L4.41156 36.111L4.41156 37.5555L4.41156 38.9999L4.41156 40.4443L4.41156 41.831L4.41156 41.8888L4.41156 43.3332L4.41156 44.7777L4.41156 46.2221L4.41156 47.6666L4.41156 49.111L4.41156 50.5555L4.41156 53.4444L4.41156 54.8888L4.41156 56.3333L4.41156 57.7777L4.41156 59.2222L4.41156 60.6666L4.41156 62.111H5.88214H7.35273L7.35273 60.6666H8.82331H10.2939L10.2939 62.111H11.7645H13.2351L13.2351 63.5555V64.9999H14.7056H16.1762H17.6468H19.1174H20.588V63.5555L20.588 62.111H22.0586H23.5291V60.6666H24.9997H26.4703V62.111H27.9409H29.4115L29.4115 63.5555V64.9999H30.8821H32.3526H33.8232H35.2938H36.7644L36.7644 63.5555V62.111H38.235H39.7055V60.6666H41.1761H42.6467V62.111H44.1173V60.6666V59.2222V57.7777V56.3333L44.1173 54.8888V51.9999V50.5555V49.111L44.1173 47.6666V46.2221V44.7777V43.3332V41.8888V41.831V40.4443L44.1173 38.9999V37.5555V36.111V34.6666V33.2221L44.1173 31.7777V30.3332V28.8888V27.4443V25.9999V24.5554L44.1173 23.111V21.6665V20.2221V18.7776V17.3332L44.1173 15.8887V14.4443V12.9999V11.5554H42.6467Z" fill="white"/>
<path d="M8.82315 37.5559L8.82315 39.0004V40.4448H10.2937H11.7643L11.7643 39.0004L11.7643 37.5559H10.2937H8.82315Z" fill="#F696C6"/>
<path d="M39.7053 37.5559H38.2347V39.0003V40.4448H39.7053H41.1758V39.0003V37.5559H39.7053Z" fill="#F696C6"/>
<path d="M20.5883 15.8881L20.5883 14.4436V12.9992H19.1177V14.4436L19.1177 15.8881V17.3325V18.777H20.5883V17.3325V15.8881Z" fill="#64438E"/>
<path d="M22.0591 11.5551H20.5885V12.9996H22.0591V11.5551Z" fill="#64438E"/>
<path d="M22.0591 18.7769H20.5885V20.2213H22.0591V18.7769Z" fill="#64438E"/>
<path d="M23.5296 20.2214H22.059V21.6659H23.5296V20.2214Z" fill="#64438E"/>
<path d="M23.5295 21.666V23.1104H25.0001H26.4707V21.666H25.0001H23.5295Z" fill="#64438E"/>
<path d="M23.5296 10.1106H22.059V11.555H23.5296V10.1106Z" fill="#64438E"/>
<path d="M29.4118 18.7769H27.9413V20.2213H29.4118V18.7769Z" fill="#64438E"/>
<path d="M29.4118 11.5551H27.9413V12.9996H29.4118V11.5551Z" fill="#64438E"/>
<path d="M26.4707 10.11V8.6655H25.0001H23.5295V10.11H25.0001H26.4707Z" fill="#64438E"/>
<path d="M27.9415 20.2214H26.4709V21.6659H27.9415V20.2214Z" fill="#64438E"/>
<path d="M27.9415 10.1106H26.4709V11.555H27.9415V10.1106Z" fill="#64438E"/>
<path d="M29.4122 12.9992V14.4436L29.4122 15.8881V17.3325V18.777H30.8828V17.3325V15.8881L30.8828 14.4436V12.9992H29.4122Z" fill="#64438E"/>
<path d="M27.9415 15.8881H26.4709H25.0003V17.3326L25.0003 18.777V20.2215V21.6659H26.4709V20.2215H27.9415V18.777H29.4121L29.4121 17.3326V15.8881H27.9415Z" fill="#C260FF"/>
<path d="M22.0586 15.8881H20.588V17.3326L20.588 18.777H22.0586V20.2215H23.5291L23.5291 21.6659H24.9997L24.9997 20.2215V18.777L24.9997 17.3326V15.8881H23.5291H22.0586Z" fill="#DEA8FF"/>
<path d="M27.941 12.9993L27.941 11.5549H26.4704V10.1104H24.9998V11.5549L24.9998 12.9993V14.4438V15.8882H26.4704H27.941H29.4116L29.4116 14.4438V12.9993H27.941Z" fill="#DEA8FF"/>
<path d="M23.5293 15.8881H24.9999L24.9999 14.4436V12.9992L24.9999 11.5548V10.1103H23.5293V11.5548H22.0587L22.0587 12.9992H20.5881V14.4436V15.8881H22.0587H23.5293Z" fill="#EDD3FD"/>
<path d="M20.588 37.5559H19.1174H17.6468V39.0004L17.6468 40.4448H19.1174H20.588L20.588 39.0004V37.5559Z" fill="#64438E"/>
<path d="M26.4707 40.4445H25.0002H23.5296H22.059H20.5884V41.889L20.5884 43.3334H22.059H23.5296H25.0002H26.4707H27.9413H29.4119V41.889V40.4445H27.9413H26.4707Z" fill="#64438E"/>
<path d="M30.8824 37.5559H29.4118V39.0003L29.4118 40.4448H30.8824H32.353V39.0003V37.5559H30.8824Z" fill="#64438E"/>
<path d="M11.7643 31.7776L11.7643 33.222L11.7643 34.6665H13.2349H14.7055H16.1761H17.6466L17.6466 33.222V31.7776H19.1172H20.5878V30.3331V28.8887L20.5878 27.4442L20.5878 25.9998H19.1172H17.6466V24.5553V23.1109H16.1761H14.7055H13.2349H11.7643L11.7643 24.5553L11.7643 25.9998H10.2937H8.82315L8.82315 27.4442L8.82315 28.8887L8.82315 30.3331V31.7776H10.2937H11.7643Z" fill="#64438E"/>
<path d="M29.4105 25.9998V27.4443V28.8887L29.4105 30.3332V31.7776H30.8811H32.3517V33.2221V34.6665H33.8223H35.2929H36.7634H38.234L38.234 33.2221V31.7776H39.7046H41.1752V30.3332V28.8887L41.1752 27.4443V25.9998H39.7046H38.234V24.5554V23.111H36.7634H35.2929H33.8223H32.3517V24.5554V25.9998H30.8811H29.4105Z" fill="#64438E"/>
<path d="M7.35239 51.9996H5.88181L5.88181 53.4441H7.35239L7.35239 51.9996Z" fill="#64438E"/>
<path d="M8.82334 43.3333H7.35275L7.35275 44.7778H8.82334L8.82334 43.3333Z" fill="#64438E"/>
<path d="M10.294 44.7779H8.82343L8.82343 46.2223H10.294L10.294 44.7779Z" fill="#64438E"/>
<path d="M16.1759 49.111V50.5555L16.1759 51.9999V53.4444V54.8888H17.6465V53.4444V51.9999L17.6465 50.5555V49.111H16.1759Z" fill="#64438E"/>
<path d="M8.82334 53.444H7.35275L7.35275 54.8884H8.82334H10.2939L10.2939 53.444H8.82334Z" fill="#64438E"/>
<path d="M13.2345 54.8888H11.7639H10.2934L10.2934 56.3332H11.7639H13.2345H14.7051H16.1757V54.8888H14.7051H13.2345Z" fill="#64438E"/>
<path d="M14.7056 47.6662H13.235L13.235 49.1107H14.7056H16.1762V47.6662H14.7056Z" fill="#64438E"/>
<path d="M11.7639 46.2219H10.2934L10.2934 47.6664H11.7639H13.2345L13.2345 46.2219H11.7639Z" fill="#64438E"/>
<path d="M7.35227 53.4447H5.88168L5.88168 54.8891H7.35227L7.35227 53.4447Z" fill="#EDD3FD"/>
<path d="M13.2344 56.3333H11.7638H10.2932L10.2932 57.7777H11.7638H13.2344H14.705H16.1756V56.3333H14.705H13.2344Z" fill="#EDD3FD"/>
<path d="M17.6457 50.5556V52L17.6457 53.4445V54.8889H19.1163V53.4445L19.1163 52V50.5556H17.6457Z" fill="#EDD3FD"/>
<path d="M8.82309 54.8887H7.35251L7.35251 56.3332H8.82309H10.2937L10.2937 54.8887H8.82309Z" fill="#EDD3FD"/>
<path d="M17.6464 54.8887H16.1758V56.3332H17.6464V54.8887Z" fill="#EDD3FD"/>
<path d="M5.88132 50.5558H4.41074L4.41074 53.4447H5.88132L5.88132 52.0002L5.88132 50.5558Z" fill="#EDD3FD"/>
<path d="M44.1163 51.9996H42.6457V53.444H44.1163V51.9996Z" fill="#64438E"/>
<path d="M42.6455 43.3333H41.1749V44.7777H42.6455V43.3333Z" fill="#64438E"/>
<path d="M41.1749 44.7778H39.7043V46.2223H41.1749V44.7778Z" fill="#64438E"/>
<path d="M39.7046 47.6663V46.2219H38.234H36.7634V47.6663H38.234H39.7046Z" fill="#64438E"/>
<path d="M39.7043 53.4439V54.8884H41.1749H42.6455V53.4439H41.1749H39.7043Z" fill="#64438E"/>
<path d="M36.7632 54.8887H35.2926H33.8221V56.3332H35.2926H36.7632H38.2338H39.7044V54.8887H38.2338H36.7632Z" fill="#64438E"/>
<path d="M33.8222 51.9999V50.5554V49.111H32.3516V50.5554V51.9999L32.3516 53.4443V54.8888H33.8222V53.4443L33.8222 51.9999Z" fill="#64438E"/>
<path d="M36.7632 49.1106V47.6662H35.2926H33.8221V49.1106H35.2926H36.7632Z" fill="#64438E"/>
<path d="M39.7049 54.8889V56.3334H41.1755H42.6461V54.8889H41.1755H39.7049Z" fill="#EDD3FD"/>
<path d="M32.3523 52.0003V50.5558H30.8817V52.0003L30.8817 53.4447V54.8892H32.3523L32.3523 53.4447V52.0003Z" fill="#EDD3FD"/>
<path d="M36.7638 56.3335H35.2932H33.8227V57.7779H35.2932H36.7638H38.2344H39.705V56.3335H38.2344H36.7638Z" fill="#EDD3FD"/>
<path d="M33.8232 54.8889H32.3526V56.3334H33.8232V54.8889Z" fill="#EDD3FD"/>
<path d="M44.1165 53.4446H42.6459V54.8891H44.1165V53.4446Z" fill="#EDD3FD"/>
</svg>
