<svg width="1200" height="669" viewBox="0 0 1200 669" fill="none" xmlns="http://www.w3.org/2000/svg">
<path d="M-4.77557e-08 45.3817L1200 45.3817L1200 47.601L-5.01435e-08 47.601L-4.77557e-08 45.3817Z" fill="#F471FF" fill-opacity="0.12"/>
<path d="M16.2791 0.996338L1183.72 0.996341L1183.72 3.21561L16.2791 3.2156L16.2791 0.996338Z" fill="#F471FF" fill-opacity="0.12"/>
<path d="M1.05162e-06 54.2588L1200 54.2588L1200 56.4781L1.04923e-06 56.4781L1.05162e-06 54.2588Z" fill="#F471FF" fill-opacity="0.12"/>
<path d="M16.2791 9.87341L1183.72 9.87342L1183.72 12.0927L16.2791 12.0927L16.2791 9.87341Z" fill="#F471FF" fill-opacity="0.12"/>
<path d="M1.04207e-06 63.1359L1200 63.1359L1200 65.3551L1.03968e-06 65.3551L1.04207e-06 63.1359Z" fill="#F471FF" fill-opacity="0.12"/>
<path d="M1.08982e-06 18.7505L1200 18.7505L1200 20.9698L1.08743e-06 20.9698L1.08982e-06 18.7505Z" fill="#F471FF" fill-opacity="0.12"/>
<path d="M1.03251e-06 72.0129L1200 72.013L1200 74.2322L1.03013e-06 74.2322L1.03251e-06 72.0129Z" fill="#F471FF" fill-opacity="0.12"/>
<path d="M1.08027e-06 27.6276L1200 27.6276L1200 29.8468L1.07788e-06 29.8468L1.08027e-06 27.6276Z" fill="#F471FF" fill-opacity="0.12"/>
<path d="M1.02296e-06 80.89L1200 80.89L1200 83.1093L1.02058e-06 83.1093L1.02296e-06 80.89Z" fill="#F471FF" fill-opacity="0.12"/>
<path d="M-3.82046e-08 36.5046L1200 36.5046L1200 38.7239L-4.05923e-08 38.7239L-3.82046e-08 36.5046Z" fill="#F471FF" fill-opacity="0.12"/>
<path d="M1.01341e-06 89.7671L1200 89.7671L1200 91.9864L1.01102e-06 91.9864L1.01341e-06 89.7671Z" fill="#F471FF" fill-opacity="0.12"/>
<path d="M1.00386e-06 98.6442L1200 98.6442L1200 100.863L1.00147e-06 100.863L1.00386e-06 98.6442Z" fill="#F471FF" fill-opacity="0.12"/>
<path d="M9.9431e-07 107.521L1200 107.521L1200 109.741L9.91922e-07 109.741L9.9431e-07 107.521Z" fill="#F471FF" fill-opacity="0.12"/>
<path d="M-1.24165e-07 116.398L1200 116.398L1200 118.618L9.82371e-07 118.618L-1.24165e-07 116.398Z" fill="#F471FF" fill-opacity="0.12"/>
<path d="M-1.33716e-07 125.275L1200 125.275L1200 127.495L-1.36104e-07 127.495L-1.33716e-07 125.275Z" fill="#F471FF" fill-opacity="0.12"/>
<path d="M9.65656e-07 134.152L1200 134.152L1200 136.372L9.63269e-07 136.372L9.65656e-07 134.152Z" fill="#F471FF" fill-opacity="0.12"/>
<path d="M9.56105e-07 143.03L1200 143.03L1200 145.249L9.53718e-07 145.249L9.56105e-07 143.03Z" fill="#F471FF" fill-opacity="0.12"/>
<path d="M9.46554e-07 151.907L1200 151.907L1200 154.126L9.44166e-07 154.126L9.46554e-07 151.907Z" fill="#F471FF" fill-opacity="0.12"/>
<path d="M9.37003e-07 160.784L1200 160.784L1200 163.003L9.34615e-07 163.003L9.37003e-07 160.784Z" fill="#F471FF" fill-opacity="0.12"/>
<path d="M9.27452e-07 169.661L1200 169.661L1200 171.88L9.25064e-07 171.88L9.27452e-07 169.661Z" fill="#F471FF" fill-opacity="0.12"/>
<path d="M9.17901e-07 178.538L1200 178.538L1200 180.757L9.15513e-07 180.757L9.17901e-07 178.538Z" fill="#F471FF" fill-opacity="0.12"/>
<path d="M9.0835e-07 187.415L1200 187.415L1200 189.634L9.05962e-07 189.634L9.0835e-07 187.415Z" fill="#F471FF" fill-opacity="0.12"/>
<path d="M8.98799e-07 196.292L1200 196.292L1200 198.511L8.96411e-07 198.511L8.98799e-07 196.292Z" fill="#F471FF" fill-opacity="0.12"/>
<path d="M-2.19676e-07 205.169L1200 205.169L1200 207.388L-2.22064e-07 207.388L-2.19676e-07 205.169Z" fill="#F471FF" fill-opacity="0.12"/>
<path d="M-2.29227e-07 214.046L1200 214.046L1200 216.265L-2.31615e-07 216.265L-2.29227e-07 214.046Z" fill="#F471FF" fill-opacity="0.12"/>
<path d="M8.70145e-07 222.923L1200 222.923L1200 225.143L8.67757e-07 225.142L8.70145e-07 222.923Z" fill="#F471FF" fill-opacity="0.12"/>
<path d="M8.60594e-07 231.8L1200 231.8L1200 234.02L8.58206e-07 234.02L8.60594e-07 231.8Z" fill="#F471FF" fill-opacity="0.12"/>
<path d="M8.51043e-07 240.677L1200 240.677L1200 242.897L8.48655e-07 242.897L8.51043e-07 240.677Z" fill="#F471FF" fill-opacity="0.12"/>
<path d="M8.41492e-07 249.554L1200 249.554L1200 251.774L8.39104e-07 251.774L8.41492e-07 249.554Z" fill="#F471FF" fill-opacity="0.12"/>
<path d="M8.31941e-07 258.432L1200 258.432L1200 260.651L8.29553e-07 260.651L8.31941e-07 258.432Z" fill="#F471FF" fill-opacity="0.12"/>
<path d="M8.22389e-07 267.309L1200 267.309L1200 269.528L8.20002e-07 269.528L8.22389e-07 267.309Z" fill="#F471FF" fill-opacity="0.12"/>
<path d="M8.12838e-07 276.186L1200 276.186L1200 278.405L8.1045e-07 278.405L8.12838e-07 276.186Z" fill="#F471FF" fill-opacity="0.12"/>
<path d="M-3.05636e-07 285.063L1200 285.063L1200 287.282L-3.08024e-07 287.282L-3.05636e-07 285.063Z" fill="#F471FF" fill-opacity="0.12"/>
<path d="M-3.15188e-07 293.94L1200 293.94L1200 296.159L-3.17575e-07 296.159L-3.15188e-07 293.94Z" fill="#F471FF" fill-opacity="0.12"/>
<path d="M7.84185e-07 302.817L1200 302.817L1200 305.036L7.81797e-07 305.036L7.84185e-07 302.817Z" fill="#F471FF" fill-opacity="0.12"/>
<path d="M7.74634e-07 311.694L1200 311.694L1200 313.913L7.72246e-07 313.913L7.74634e-07 311.694Z" fill="#F471FF" fill-opacity="0.12"/>
<path d="M7.65083e-07 320.571L1199.66 320.571L1199.66 322.79L7.62695e-07 322.79L7.65083e-07 320.571Z" fill="#F471FF" fill-opacity="0.12"/>
<path d="M7.55531e-07 329.448L1200 329.448L1200 331.667L7.53144e-07 331.667L7.55531e-07 329.448Z" fill="#F471FF" fill-opacity="0.12"/>
<path d="M7.4598e-07 338.325L1200 338.325L1200 340.544L7.43592e-07 340.544L7.4598e-07 338.325Z" fill="#F471FF" fill-opacity="0.12"/>
<path d="M7.36429e-07 347.202L1200 347.202L1200 349.422L7.34041e-07 349.422L7.36429e-07 347.202Z" fill="#F471FF" fill-opacity="0.12"/>
<path d="M7.26878e-07 356.079L1200 356.079L1200 358.299L7.2449e-07 358.299L7.26878e-07 356.079Z" fill="#F471FF" fill-opacity="0.12"/>
<path d="M-3.91597e-07 364.956L1200 364.956L1200 367.176L-3.93985e-07 367.176L-3.91597e-07 364.956Z" fill="#F471FF" fill-opacity="0.12"/>
<path d="M5.64509e-07 506.99L1200 506.99L1200 509.209L5.62121e-07 509.209L5.64509e-07 506.99Z" fill="#F471FF" fill-opacity="0.12"/>
<path d="M-4.01148e-07 373.834L1200 373.834L1200 376.053L-4.03536e-07 376.053L-4.01148e-07 373.834Z" fill="#F471FF" fill-opacity="0.12"/>
<path d="M5.54957e-07 515.867L1200 515.867L1200 518.086L5.5257e-07 518.086L5.54957e-07 515.867Z" fill="#F471FF" fill-opacity="0.12"/>
<path d="M2.91607e-06 382.711L1200 382.711L1200 384.93L2.91368e-06 384.93L2.91607e-06 382.711Z" fill="#F471FF" fill-opacity="0.12"/>
<path d="M5.45406e-07 524.744L1200 524.744L1200 526.963L5.43019e-07 526.963L5.45406e-07 524.744Z" fill="#F471FF" fill-opacity="0.12"/>
<path d="M2.90652e-06 391.588L1200 391.588L1200 393.807L2.90413e-06 393.807L2.90652e-06 391.588Z" fill="#F471FF" fill-opacity="0.12"/>
<path d="M-5.73068e-07 533.621L1200 533.621L1200 535.84L-5.75456e-07 535.84L-5.73068e-07 533.621Z" fill="#F471FF" fill-opacity="0.12"/>
<path d="M2.89697e-06 400.465L1200 400.465L1200 402.684L2.89458e-06 402.684L2.89697e-06 400.465Z" fill="#F471FF" fill-opacity="0.12"/>
<path d="M-5.8262e-07 542.498L1200 542.498L1200 544.717L-5.85007e-07 544.717L-5.8262e-07 542.498Z" fill="#F471FF" fill-opacity="0.12"/>
<path d="M6.69571e-07 409.342L1200 409.342L1200 411.561L6.67183e-07 411.561L6.69571e-07 409.342Z" fill="#F471FF" fill-opacity="0.12"/>
<path d="M2.7346e-06 551.375L1200 551.375L1200 553.594L2.73221e-06 553.594L2.7346e-06 551.375Z" fill="#F471FF" fill-opacity="0.12"/>
<path d="M6.6002e-07 418.219L1200 418.219L1200 420.438L6.57632e-07 420.438L6.6002e-07 418.219Z" fill="#F471FF" fill-opacity="0.12"/>
<path d="M2.72505e-06 560.252L1200 560.252L1200 562.471L2.72266e-06 562.471L2.72505e-06 560.252Z" fill="#F471FF" fill-opacity="0.12"/>
<path d="M6.50469e-07 427.096L1200 427.096L1200 429.315L6.48081e-07 429.315L6.50469e-07 427.096Z" fill="#F471FF" fill-opacity="0.12"/>
<path d="M4.97651e-07 569.129L1200 569.129L1200 571.349L4.95263e-07 571.349L4.97651e-07 569.129Z" fill="#F471FF" fill-opacity="0.12"/>
<path d="M6.40918e-07 435.973L1200 435.973L1200 438.192L6.3853e-07 438.192L6.40918e-07 435.973Z" fill="#F471FF" fill-opacity="0.12"/>
<path d="M4.88099e-07 578.006L1200 578.006L1200 580.226L4.85712e-07 580.226L4.88099e-07 578.006Z" fill="#F471FF" fill-opacity="0.12"/>
<path d="M6.31367e-07 444.85L1200 444.85L1200 447.069L6.28979e-07 447.069L6.31367e-07 444.85Z" fill="#F471FF" fill-opacity="0.12"/>
<path d="M4.78548e-07 586.883L1200 586.883L1200 589.103L4.76161e-07 589.103L4.78548e-07 586.883Z" fill="#F471FF" fill-opacity="0.12"/>
<path d="M6.21815e-07 453.727L1200 453.727L1200 455.947L6.19428e-07 455.947L6.21815e-07 453.727Z" fill="#F471FF" fill-opacity="0.12"/>
<path d="M4.68997e-07 595.76L1200 595.76L1200 597.98L4.66609e-07 597.98L4.68997e-07 595.76Z" fill="#F471FF" fill-opacity="0.12"/>
<path d="M6.12264e-07 462.604L1200 462.604L1200 464.824L6.09876e-07 464.824L6.12264e-07 462.604Z" fill="#F471FF" fill-opacity="0.12"/>
<path d="M4.59446e-07 604.638L1200 604.638L1200 606.857L4.57058e-07 606.857L4.59446e-07 604.638Z" fill="#F471FF" fill-opacity="0.12"/>
<path d="M6.02713e-07 471.481L1200 471.481L1200 473.701L6.00325e-07 473.701L6.02713e-07 471.481Z" fill="#F471FF" fill-opacity="0.12"/>
<path d="M4.49895e-07 613.515L1200 613.515L1200 615.734L4.47507e-07 615.734L4.49895e-07 613.515Z" fill="#F471FF" fill-opacity="0.12"/>
<path d="M4.1169e-07 649.023L1200 649.023L1200 651.242L4.09303e-07 651.242L4.1169e-07 649.023Z" fill="#F471FF" fill-opacity="0.12"/>
<path d="M5.93162e-07 480.358L1200 480.358L1200 482.578L5.90774e-07 482.578L5.93162e-07 480.358Z" fill="#F471FF" fill-opacity="0.12"/>
<path d="M4.40344e-07 622.392L1200 622.392L1200 624.611L4.37956e-07 624.611L4.40344e-07 622.392Z" fill="#F471FF" fill-opacity="0.12"/>
<path d="M16.2791 657.9L1183.72 657.9L1183.72 660.119L16.2791 660.119L16.2791 657.9Z" fill="#F471FF" fill-opacity="0.12"/>
<path d="M5.83611e-07 489.236L1200 489.236L1200 491.455L5.81223e-07 491.455L5.83611e-07 489.236Z" fill="#F471FF" fill-opacity="0.12"/>
<path d="M4.30793e-07 631.269L1200 631.269L1200 633.488L4.28405e-07 633.488L4.30793e-07 631.269Z" fill="#F471FF" fill-opacity="0.12"/>
<path d="M16.2791 666.777L1183.72 666.777L1183.72 668.996L16.2791 668.996L16.2791 666.777Z" fill="#F471FF" fill-opacity="0.12"/>
<path d="M5.7406e-07 498.113L1200 498.113L1200 500.332L5.71672e-07 500.332L5.7406e-07 498.113Z" fill="#F471FF" fill-opacity="0.12"/>
<path d="M4.21241e-07 640.146L1200 640.146L1200 642.365L4.18854e-07 642.365L4.21241e-07 640.146Z" fill="#F471FF" fill-opacity="0.12"/>
</svg>
