<svg width="1230" height="703" viewBox="0 0 1230 703" fill="none" xmlns="http://www.w3.org/2000/svg">
<g filter="url(#filter0_dd_7_260)">
<path d="M28.2162 28.9922V12.9961H1195.78V28.9922H1212V668.996H1195.78V685H28.2162V668.996H12V28.9922H28.2162Z" fill="black" fill-opacity="0.85" shape-rendering="crispEdges"/>
<path d="M28.2162 30.4922H29.7162V28.9922V14.4961H1194.28V28.9922V30.4922H1195.78H1210.5V667.496H1195.78H1194.28V668.996V683.5H29.7162V668.996V667.496H28.2162H13.5V30.4922H28.2162Z" stroke="#C82AC2" stroke-width="3" shape-rendering="crispEdges"/>
</g>
<path d="M12 61.3817L1212 61.3817L1212 63.601L12 63.601L12 61.3817Z" fill="#F471FF" fill-opacity="0.12"/>
<path d="M28.2791 16.9963L1195.72 16.9963L1195.72 19.2156L28.2791 19.2156L28.2791 16.9963Z" fill="#F471FF" fill-opacity="0.12"/>
<path d="M12 70.2588L1212 70.2588L1212 72.4781L12 72.4781L12 70.2588Z" fill="#F471FF" fill-opacity="0.12"/>
<path d="M28.2791 25.8734L1195.72 25.8734L1195.72 28.0927L28.2791 28.0927L28.2791 25.8734Z" fill="#F471FF" fill-opacity="0.12"/>
<path d="M12 79.1359L1212 79.1359L1212 81.3551L12 81.3551L12 79.1359Z" fill="#F471FF" fill-opacity="0.12"/>
<path d="M12 34.7505L1212 34.7505L1212 36.9698L12 36.9698L12 34.7505Z" fill="#F471FF" fill-opacity="0.12"/>
<path d="M12 88.0129L1212 88.013L1212 90.2322L12 90.2322L12 88.0129Z" fill="#F471FF" fill-opacity="0.12"/>
<path d="M12 43.6276L1212 43.6276L1212 45.8468L12 45.8468L12 43.6276Z" fill="#F471FF" fill-opacity="0.12"/>
<path d="M12 96.89L1212 96.89L1212 99.1093L12 99.1093L12 96.89Z" fill="#F471FF" fill-opacity="0.12"/>
<path d="M12 52.5046L1212 52.5046L1212 54.7239L12 54.7239L12 52.5046Z" fill="#F471FF" fill-opacity="0.12"/>
<path d="M12 105.767L1212 105.767L1212 107.986L12 107.986L12 105.767Z" fill="#F471FF" fill-opacity="0.12"/>
<path d="M12 114.644L1212 114.644L1212 116.863L12 116.863L12 114.644Z" fill="#F471FF" fill-opacity="0.12"/>
<path d="M12 123.521L1212 123.521L1212 125.741L12 125.741L12 123.521Z" fill="#F471FF" fill-opacity="0.12"/>
<path d="M12 132.398L1212 132.398L1212 134.618L12 134.618L12 132.398Z" fill="#F471FF" fill-opacity="0.12"/>
<path d="M12 141.275L1212 141.275L1212 143.495L12 143.495L12 141.275Z" fill="#F471FF" fill-opacity="0.12"/>
<path d="M12 150.152L1212 150.152L1212 152.372L12 152.372L12 150.152Z" fill="#F471FF" fill-opacity="0.12"/>
<path d="M12 159.03L1212 159.03L1212 161.249L12 161.249L12 159.03Z" fill="#F471FF" fill-opacity="0.12"/>
<path d="M12 167.907L1212 167.907L1212 170.126L12 170.126L12 167.907Z" fill="#F471FF" fill-opacity="0.12"/>
<path d="M12 176.784L1212 176.784L1212 179.003L12 179.003L12 176.784Z" fill="#F471FF" fill-opacity="0.12"/>
<path d="M12 185.661L1212 185.661L1212 187.88L12 187.88L12 185.661Z" fill="#F471FF" fill-opacity="0.12"/>
<path d="M12 194.538L1212 194.538L1212 196.757L12 196.757L12 194.538Z" fill="#F471FF" fill-opacity="0.12"/>
<path d="M12 203.415L1212 203.415L1212 205.634L12 205.634L12 203.415Z" fill="#F471FF" fill-opacity="0.12"/>
<path d="M12 212.292L1212 212.292L1212 214.511L12 214.511L12 212.292Z" fill="#F471FF" fill-opacity="0.12"/>
<path d="M12 221.169L1212 221.169L1212 223.388L12 223.388L12 221.169Z" fill="#F471FF" fill-opacity="0.12"/>
<path d="M12 230.046L1212 230.046L1212 232.265L12 232.265L12 230.046Z" fill="#F471FF" fill-opacity="0.12"/>
<path d="M12 238.923L1212 238.923L1212 241.143L12 241.142L12 238.923Z" fill="#F471FF" fill-opacity="0.12"/>
<path d="M12 247.8L1212 247.8L1212 250.02L12 250.02L12 247.8Z" fill="#F471FF" fill-opacity="0.12"/>
<path d="M12 256.677L1212 256.677L1212 258.897L12 258.897L12 256.677Z" fill="#F471FF" fill-opacity="0.12"/>
<path d="M12 265.554L1212 265.554L1212 267.774L12 267.774L12 265.554Z" fill="#F471FF" fill-opacity="0.12"/>
<path d="M12 274.432L1212 274.432L1212 276.651L12 276.651L12 274.432Z" fill="#F471FF" fill-opacity="0.12"/>
<path d="M12 283.309L1212 283.309L1212 285.528L12 285.528L12 283.309Z" fill="#F471FF" fill-opacity="0.12"/>
<path d="M12 292.186L1212 292.186L1212 294.405L12 294.405L12 292.186Z" fill="#F471FF" fill-opacity="0.12"/>
<path d="M12 301.063L1212 301.063L1212 303.282L12 303.282L12 301.063Z" fill="#F471FF" fill-opacity="0.12"/>
<path d="M12 309.94L1212 309.94L1212 312.159L12 312.159L12 309.94Z" fill="#F471FF" fill-opacity="0.12"/>
<path d="M12 318.817L1212 318.817L1212 321.036L12 321.036L12 318.817Z" fill="#F471FF" fill-opacity="0.12"/>
<path d="M12 327.694L1212 327.694L1212 329.913L12 329.913L12 327.694Z" fill="#F471FF" fill-opacity="0.12"/>
<path d="M12 336.571L1211.66 336.571L1211.66 338.79L12 338.79L12 336.571Z" fill="#F471FF" fill-opacity="0.12"/>
<path d="M12 345.448L1212 345.448L1212 347.667L12 347.667L12 345.448Z" fill="#F471FF" fill-opacity="0.12"/>
<path d="M12 354.325L1212 354.325L1212 356.544L12 356.544L12 354.325Z" fill="#F471FF" fill-opacity="0.12"/>
<path d="M12 363.202L1212 363.202L1212 365.422L12 365.422L12 363.202Z" fill="#F471FF" fill-opacity="0.12"/>
<path d="M12 372.079L1212 372.079L1212 374.299L12 374.299L12 372.079Z" fill="#F471FF" fill-opacity="0.12"/>
<path d="M12 380.956L1212 380.956L1212 383.176L12 383.176L12 380.956Z" fill="#F471FF" fill-opacity="0.12"/>
<path d="M12 522.99L1212 522.99L1212 525.209L12 525.209L12 522.99Z" fill="#F471FF" fill-opacity="0.12"/>
<path d="M12 389.834L1212 389.834L1212 392.053L12 392.053L12 389.834Z" fill="#F471FF" fill-opacity="0.12"/>
<path d="M12 531.867L1212 531.867L1212 534.086L12 534.086L12 531.867Z" fill="#F471FF" fill-opacity="0.12"/>
<path d="M12 398.711L1212 398.711L1212 400.93L12 400.93L12 398.711Z" fill="#F471FF" fill-opacity="0.12"/>
<path d="M12 540.744L1212 540.744L1212 542.963L12 542.963L12 540.744Z" fill="#F471FF" fill-opacity="0.12"/>
<path d="M12 407.588L1212 407.588L1212 409.807L12 409.807L12 407.588Z" fill="#F471FF" fill-opacity="0.12"/>
<path d="M12 549.621L1212 549.621L1212 551.84L12 551.84L12 549.621Z" fill="#F471FF" fill-opacity="0.12"/>
<path d="M12 416.465L1212 416.465L1212 418.684L12 418.684L12 416.465Z" fill="#F471FF" fill-opacity="0.12"/>
<path d="M12 558.498L1212 558.498L1212 560.717L12 560.717L12 558.498Z" fill="#F471FF" fill-opacity="0.12"/>
<path d="M12 425.342L1212 425.342L1212 427.561L12 427.561L12 425.342Z" fill="#F471FF" fill-opacity="0.12"/>
<path d="M12 567.375L1212 567.375L1212 569.594L12 569.594L12 567.375Z" fill="#F471FF" fill-opacity="0.12"/>
<path d="M12 434.219L1212 434.219L1212 436.438L12 436.438L12 434.219Z" fill="#F471FF" fill-opacity="0.12"/>
<path d="M12 576.252L1212 576.252L1212 578.471L12 578.471L12 576.252Z" fill="#F471FF" fill-opacity="0.12"/>
<path d="M12 443.096L1212 443.096L1212 445.315L12 445.315L12 443.096Z" fill="#F471FF" fill-opacity="0.12"/>
<path d="M12 585.129L1212 585.129L1212 587.349L12 587.349L12 585.129Z" fill="#F471FF" fill-opacity="0.12"/>
<path d="M12 451.973L1212 451.973L1212 454.192L12 454.192L12 451.973Z" fill="#F471FF" fill-opacity="0.12"/>
<path d="M12 594.006L1212 594.006L1212 596.226L12 596.226L12 594.006Z" fill="#F471FF" fill-opacity="0.12"/>
<path d="M12 460.85L1212 460.85L1212 463.069L12 463.069L12 460.85Z" fill="#F471FF" fill-opacity="0.12"/>
<path d="M12 602.883L1212 602.883L1212 605.103L12 605.103L12 602.883Z" fill="#F471FF" fill-opacity="0.12"/>
<path d="M12 469.727L1212 469.727L1212 471.947L12 471.947L12 469.727Z" fill="#F471FF" fill-opacity="0.12"/>
<path d="M12 611.76L1212 611.76L1212 613.98L12 613.98L12 611.76Z" fill="#F471FF" fill-opacity="0.12"/>
<path d="M12 478.604L1212 478.604L1212 480.824L12 480.824L12 478.604Z" fill="#F471FF" fill-opacity="0.12"/>
<path d="M12 620.638L1212 620.638L1212 622.857L12 622.857L12 620.638Z" fill="#F471FF" fill-opacity="0.12"/>
<path d="M12 487.481L1212 487.481L1212 489.701L12 489.701L12 487.481Z" fill="#F471FF" fill-opacity="0.12"/>
<path d="M12 629.515L1212 629.515L1212 631.734L12 631.734L12 629.515Z" fill="#F471FF" fill-opacity="0.12"/>
<path d="M12 665.023L1212 665.023L1212 667.242L12 667.242L12 665.023Z" fill="#F471FF" fill-opacity="0.12"/>
<path d="M12 496.358L1212 496.358L1212 498.578L12 498.578L12 496.358Z" fill="#F471FF" fill-opacity="0.12"/>
<path d="M12 638.392L1212 638.392L1212 640.611L12 640.611L12 638.392Z" fill="#F471FF" fill-opacity="0.12"/>
<path d="M28.2791 673.9L1195.72 673.9L1195.72 676.119L28.2791 676.119L28.2791 673.9Z" fill="#F471FF" fill-opacity="0.12"/>
<path d="M12 505.236L1212 505.236L1212 507.455L12 507.455L12 505.236Z" fill="#F471FF" fill-opacity="0.12"/>
<path d="M12 647.269L1212 647.269L1212 649.488L12 649.488L12 647.269Z" fill="#F471FF" fill-opacity="0.12"/>
<path d="M28.2791 682.777L1195.72 682.777L1195.72 684.996L28.2791 684.996L28.2791 682.777Z" fill="#F471FF" fill-opacity="0.12"/>
<path d="M12 514.113L1212 514.113L1212 516.332L12 516.332L12 514.113Z" fill="#F471FF" fill-opacity="0.12"/>
<path d="M12 656.146L1212 656.146L1212 658.365L12 658.365L12 656.146Z" fill="#F471FF" fill-opacity="0.12"/>
<defs>
<filter id="filter0_dd_7_260" x="0" y="0.996094" width="1230" height="702.004" filterUnits="userSpaceOnUse" color-interpolation-filters="sRGB">
<feFlood flood-opacity="0" result="BackgroundImageFix"/>
<feColorMatrix in="SourceAlpha" type="matrix" values="0 0 0 0 0 0 0 0 0 0 0 0 0 0 0 0 0 0 127 0" result="hardAlpha"/>
<feOffset dx="4" dy="4"/>
<feGaussianBlur stdDeviation="7"/>
<feComposite in2="hardAlpha" operator="out"/>
<feColorMatrix type="matrix" values="0 0 0 0 0.784314 0 0 0 0 0.164706 0 0 0 0 0.760784 0 0 0 1 0"/>
<feBlend mode="normal" in2="BackgroundImageFix" result="effect1_dropShadow_7_260"/>
<feColorMatrix in="SourceAlpha" type="matrix" values="0 0 0 0 0 0 0 0 0 0 0 0 0 0 0 0 0 0 127 0" result="hardAlpha"/>
<feOffset dx="-4" dy="-4"/>
<feGaussianBlur stdDeviation="4"/>
<feComposite in2="hardAlpha" operator="out"/>
<feColorMatrix type="matrix" values="0 0 0 0 0.784314 0 0 0 0 0.164706 0 0 0 0 0.760784 0 0 0 1 0"/>
<feBlend mode="normal" in2="effect1_dropShadow_7_260" result="effect2_dropShadow_7_260"/>
<feBlend mode="normal" in="SourceGraphic" in2="effect2_dropShadow_7_260" result="shape"/>
</filter>
</defs>
</svg>
