<svg width="47" height="43" viewBox="0 0 47 43" fill="none" xmlns="http://www.w3.org/2000/svg">
<g filter="url(#filter0_dd_7_400)">
<path d="M16.7596 26.9776C16.0304 23.2006 17.464 20.5928 20.9978 19.1367C21.1922 19.0567 21.3735 18.7783 21.4184 18.5642C21.4887 18.2291 21.4112 17.8678 21.4421 17.5216C21.555 16.2587 21.4266 15.3069 20.0493 14.4874C18.1491 13.3568 17.6848 10.9123 18.5462 8.95211C19.3976 7.01448 21.4999 5.80057 23.6198 6.02222C25.7945 6.24974 27.5833 7.85661 28.0005 9.95729C28.4035 11.9855 27.3403 14.1178 25.3732 15.0724C24.8959 15.3042 24.7623 15.5578 24.7835 16.035C24.8201 16.8559 24.7688 17.6806 24.8106 18.5009C24.8216 18.7164 24.9864 19.0331 25.1702 19.1156C28.8716 20.7762 30.173 23.1137 29.4761 26.9803C30.6719 27.6672 31.8731 28.3828 33.107 29.0401C33.3043 29.1451 33.6875 29.0607 33.9202 28.9433C37.2443 27.2682 41.1487 29.4595 41.2644 33.0791C41.3425 35.5191 39.3797 37.6572 36.7786 37.9657C34.4031 38.2475 31.9471 36.5428 31.4743 34.2311C31.3571 33.6577 31.3704 33.045 31.4206 32.4582C31.4543 32.063 31.4158 31.8161 31.0297 31.6066C30.0672 31.0843 29.1413 30.4979 28.1716 29.9894C27.9787 29.8882 27.5801 29.9249 27.4049 30.0577C24.7022 32.1064 21.5193 32.1087 18.833 30.0633C18.657 29.9294 18.259 29.8857 18.0678 29.9858C17.0978 30.4937 16.1713 31.079 15.2099 31.6031C14.8306 31.8099 14.751 32.0412 14.8249 32.4486C15.2133 34.5943 13.9837 36.7204 11.888 37.5876C9.77876 38.4606 7.32307 37.81 5.97388 36.0212C4.60673 34.2086 4.68556 31.8051 6.16901 30.0741C7.60554 28.398 10.0905 27.8621 12.0974 28.8778C12.6856 29.1755 13.0878 29.1352 13.616 28.8019C14.6445 28.1527 15.7208 27.5748 16.7596 26.9776ZM23.1426 28.3464C24.9816 28.3314 26.3859 26.9381 26.3704 25.1438C26.3555 23.4188 24.9048 22.0164 23.1268 22.0085C21.3218 22.0004 19.8579 23.4292 19.8602 25.1964C19.8625 26.9774 21.3046 28.3613 23.1426 28.3464ZM24.7177 10.7958C24.6996 9.90289 24.0027 9.2537 23.0797 9.27008C22.1655 9.28631 21.494 9.96916 21.5117 10.8649C21.5287 11.7316 22.275 12.4368 23.1509 12.414C24.0388 12.3908 24.7355 11.6712 24.7177 10.7958ZM9.92108 34.7291C10.8264 34.7448 11.5404 34.0881 11.5634 33.2181C11.5871 32.3282 10.8463 31.5796 9.94726 31.5845C9.0845 31.5893 8.33155 32.3159 8.32148 33.1531C8.31142 33.9943 9.04191 34.714 9.92108 34.7291ZM36.3064 34.7293C37.1856 34.7156 37.9175 33.9973 37.9093 33.1561C37.9011 32.3195 37.1487 31.5908 36.2866 31.5845C35.3879 31.5779 34.6458 32.3252 34.6673 33.2151C34.6884 34.0849 35.4012 34.7434 36.3064 34.7293Z" fill="#F31CED"/>
<path d="M16.7596 26.9776C16.0304 23.2006 17.464 20.5928 20.9978 19.1367C21.1922 19.0567 21.3735 18.7783 21.4184 18.5642C21.4887 18.2291 21.4112 17.8678 21.4421 17.5216C21.555 16.2587 21.4266 15.3069 20.0493 14.4874C18.1491 13.3568 17.6848 10.9123 18.5462 8.95211C19.3976 7.01448 21.4999 5.80057 23.6198 6.02222C25.7945 6.24974 27.5833 7.85661 28.0005 9.95729C28.4035 11.9855 27.3403 14.1178 25.3732 15.0724C24.8959 15.3042 24.7623 15.5578 24.7835 16.035C24.8201 16.8559 24.7688 17.6806 24.8106 18.5009C24.8216 18.7164 24.9864 19.0331 25.1702 19.1156C28.8716 20.7762 30.173 23.1137 29.4761 26.9803C30.6719 27.6672 31.8731 28.3828 33.107 29.0401C33.3043 29.1451 33.6875 29.0607 33.9202 28.9433C37.2443 27.2682 41.1487 29.4595 41.2644 33.0791C41.3425 35.5191 39.3797 37.6572 36.7786 37.9657C34.4031 38.2475 31.9471 36.5428 31.4743 34.2311C31.3571 33.6577 31.3704 33.045 31.4206 32.4582C31.4543 32.063 31.4158 31.8161 31.0297 31.6066C30.0672 31.0843 29.1413 30.4979 28.1716 29.9894C27.9787 29.8882 27.5801 29.9249 27.4049 30.0577C24.7022 32.1064 21.5193 32.1087 18.833 30.0633C18.657 29.9294 18.259 29.8857 18.0678 29.9858C17.0978 30.4937 16.1713 31.079 15.2099 31.6031C14.8306 31.8099 14.751 32.0412 14.8249 32.4486C15.2133 34.5943 13.9837 36.7204 11.888 37.5876C9.77876 38.4606 7.32307 37.81 5.97388 36.0212C4.60673 34.2086 4.68556 31.8051 6.16901 30.0741C7.60554 28.398 10.0905 27.8621 12.0974 28.8778C12.6856 29.1755 13.0878 29.1352 13.616 28.8019C14.6445 28.1527 15.7208 27.5748 16.7596 26.9776ZM23.1426 28.3464C24.9816 28.3314 26.3859 26.9381 26.3704 25.1438C26.3555 23.4188 24.9048 22.0164 23.1268 22.0085C21.3218 22.0004 19.8579 23.4292 19.8602 25.1964C19.8625 26.9774 21.3046 28.3613 23.1426 28.3464ZM24.7177 10.7958C24.6996 9.90289 24.0027 9.2537 23.0797 9.27008C22.1655 9.28631 21.494 9.96916 21.5117 10.8649C21.5287 11.7316 22.275 12.4368 23.1509 12.414C24.0388 12.3908 24.7355 11.6712 24.7177 10.7958ZM9.92108 34.7291C10.8264 34.7448 11.5404 34.0881 11.5634 33.2181C11.5871 32.3282 10.8463 31.5796 9.94726 31.5845C9.0845 31.5893 8.33155 32.3159 8.32148 33.1531C8.31142 33.9943 9.04191 34.714 9.92108 34.7291ZM36.3064 34.7293C37.1856 34.7156 37.9175 33.9973 37.9093 33.1561C37.9011 32.3195 37.1487 31.5908 36.2866 31.5845C35.3879 31.5779 34.6458 32.3252 34.6673 33.2151C34.6884 34.0849 35.4012 34.7434 36.3064 34.7293Z" fill="#A065FF"/>
</g>
<defs>
<filter id="filter0_dd_7_400" x="0" y="0.996216" width="46.2667" height="42" filterUnits="userSpaceOnUse" color-interpolation-filters="sRGB">
<feFlood flood-opacity="0" result="BackgroundImageFix"/>
<feColorMatrix in="SourceAlpha" type="matrix" values="0 0 0 0 0 0 0 0 0 0 0 0 0 0 0 0 0 0 127 0" result="hardAlpha"/>
<feOffset/>
<feGaussianBlur stdDeviation="2.5"/>
<feComposite in2="hardAlpha" operator="out"/>
<feColorMatrix type="matrix" values="0 0 0 0 0.513726 0 0 0 0 0.282353 0 0 0 0 1 0 0 0 1 0"/>
<feBlend mode="normal" in2="BackgroundImageFix" result="effect1_dropShadow_7_400"/>
<feColorMatrix in="SourceAlpha" type="matrix" values="0 0 0 0 0 0 0 0 0 0 0 0 0 0 0 0 0 0 127 0" result="hardAlpha"/>
<feOffset/>
<feGaussianBlur stdDeviation="2.5"/>
<feComposite in2="hardAlpha" operator="out"/>
<feColorMatrix type="matrix" values="0 0 0 0 0.513726 0 0 0 0 0.282353 0 0 0 0 1 0 0 0 1 0"/>
<feBlend mode="normal" in2="effect1_dropShadow_7_400" result="effect2_dropShadow_7_400"/>
<feBlend mode="normal" in="SourceGraphic" in2="effect2_dropShadow_7_400" result="shape"/>
</filter>
</defs>
</svg>
